<svg aria-hidden="true" style="position: absolute; width: 0; height: 0; overflow: hidden;" version="1.1" xmlns="http://www.w3.org/2000/svg" xmlns:xlink="http://www.w3.org/1999/xlink">
<defs>
<symbol id="icon-Divider" viewBox="0 0 139 32">
<path fill="#1f6c94" style="fill: var(--color1, #1f6c94)" d="M69.333 0l16 16-16 16-16-16 16-16z"></path>
<path fill="none" stroke="#1f6c94" style="stroke: var(--color1, #1f6c94)" stroke-linejoin="miter" stroke-linecap="round" stroke-miterlimit="4" stroke-width="13.3333" d="M8 16h32"></path>
<path fill="none" stroke="#1f6c94" style="stroke: var(--color1, #1f6c94)" stroke-linejoin="miter" stroke-linecap="round" stroke-miterlimit="4" stroke-width="13.3333" d="M98.667 16h32"></path>
</symbol>
<symbol id="icon-arrowRight" viewBox="0 0 27 32">
<path fill="none" stroke="#1f6c94" style="stroke: var(--color1, #1f6c94)" stroke-linejoin="miter" stroke-linecap="butt" stroke-miterlimit="4" stroke-width="3.2" d="M2.4 2.4l20.8 13.6-20.8 13.6"></path>
</symbol>
<symbol id="icon-rombik" viewBox="0 0 35 32">
<path fill="#1f6c94" style="fill: var(--color1, #1f6c94)" opacity="0.9" d="M17.456 0l14.688 16-14.688 16-14.689-16 14.689-16z"></path>
</symbol>
<symbol id="icon-star" viewBox="0 0 30 32">
<path fill="#ffbf00" style="fill: var(--color2, #ffbf00)" d="M19.295 7.456l1.768 3.655c0.238 0.505 0.878 0.985 1.417 1.089l3.197 0.544c2.044 0.35 2.52 1.879 1.053 3.408l-2.495 2.579c-0.414 0.428-0.652 1.27-0.514 1.879l0.715 3.188c0.564 2.514-0.74 3.499-2.884 2.177l-2.996-1.84c-0.539-0.337-1.442-0.337-1.981 0l-2.996 1.84c-2.144 1.309-3.448 0.337-2.884-2.177l0.715-3.188c0.113-0.622-0.125-1.464-0.539-1.892l-2.495-2.579c-1.467-1.516-0.99-3.046 1.053-3.408l3.197-0.544c0.539-0.091 1.178-0.583 1.417-1.089l1.768-3.655c0.965-1.97 2.52-1.97 3.485 0.013z"></path>
<path fill="#ffbf00" style="fill: var(--color2, #ffbf00)" d="M10.030 8.156h-7.522c-0.514 0-0.94-0.441-0.94-0.972s0.426-0.972 0.94-0.972h7.522c0.514 0 0.94 0.441 0.94 0.972s-0.426 0.972-0.94 0.972z"></path>
<path fill="#ffbf00" style="fill: var(--color2, #ffbf00)" d="M6.269 26.3h-3.761c-0.514 0-0.94-0.441-0.94-0.972s0.426-0.972 0.94-0.972h3.761c0.514 0 0.94 0.441 0.94 0.972s-0.426 0.972-0.94 0.972z"></path>
<path fill="#ffbf00" style="fill: var(--color2, #ffbf00)" d="M3.761 17.228h-1.254c-0.514 0-0.94-0.441-0.94-0.972s0.426-0.972 0.94-0.972h1.254c0.514 0 0.94 0.441 0.94 0.972s-0.426 0.972-0.94 0.972z"></path>
</symbol>
<symbol id="icon-youtube" viewBox="0 0 32 32">
<path fill="#5c686d" style="fill: var(--color3, #5c686d)" d="M19.723 14.367l-4.891-2.816c-0.287-0.165-0.613-0.252-0.944-0.252s-0.657 0.088-0.944 0.253c-0.287 0.166-0.525 0.404-0.691 0.691s-0.253 0.612-0.253 0.944v5.629c-0.004 0.675 0.356 1.299 0.941 1.632 0.287 0.168 0.613 0.256 0.946 0.257s0.659-0.087 0.946-0.254l4.889-2.816c0.287-0.165 0.526-0.403 0.692-0.69s0.253-0.612 0.253-0.944-0.087-0.657-0.253-0.944c-0.166-0.287-0.404-0.525-0.692-0.69v-0.001zM19.056 16.476l-4.888 2.817c-0.085 0.050-0.181 0.076-0.279 0.076s-0.195-0.026-0.279-0.076c-0.085-0.048-0.155-0.118-0.204-0.202s-0.074-0.18-0.072-0.278v-5.627c-0.001-0.097 0.024-0.193 0.073-0.277s0.119-0.154 0.203-0.202c0.084-0.051 0.18-0.078 0.279-0.078s0.195 0.027 0.279 0.078l4.889 2.817c0.084 0.048 0.154 0.117 0.203 0.2s0.075 0.179 0.075 0.276-0.026 0.192-0.075 0.276c-0.049 0.084-0.119 0.151-0.203 0.199zM25.334 5.333h-18.667c-1.061 0.001-2.077 0.423-2.827 1.173s-1.172 1.767-1.173 2.827v13.333c0.001 1.061 0.423 2.077 1.173 2.827s1.767 1.172 2.827 1.173h18.667c1.061-0.001 2.077-0.423 2.827-1.173s1.172-1.767 1.173-2.827v-13.333c-0.001-1.061-0.423-2.077-1.173-2.827s-1.767-1.172-2.827-1.173zM28 22.667c-0.001 0.707-0.282 1.385-0.782 1.884s-1.178 0.781-1.884 0.782h-18.667c-0.707-0.001-1.385-0.282-1.884-0.782s-0.781-1.178-0.782-1.884v-13.333c0.001-0.707 0.282-1.385 0.782-1.884s1.178-0.781 1.884-0.782h18.667c0.707 0.001 1.385 0.282 1.884 0.782s0.781 1.178 0.782 1.884v13.333z"></path>
</symbol>
<symbol id="icon-instagram" viewBox="0 0 32 32">
<path fill="#5c686d" style="fill: var(--color3, #5c686d)" d="M24.583 27.916h-17.165c-0.884 0-1.732-0.351-2.357-0.976s-0.976-1.473-0.976-2.357v-17.165c0-0.884 0.351-1.732 0.976-2.357s1.473-0.976 2.357-0.976h17.165c0.884 0 1.732 0.351 2.357 0.976s0.976 1.473 0.976 2.357v17.165c0 0.884-0.351 1.732-0.976 2.357s-1.473 0.976-2.357 0.976zM7.417 5.417c-0.53 0-1.039 0.211-1.414 0.586s-0.586 0.884-0.586 1.414v17.165c0 0.53 0.211 1.039 0.586 1.414s0.884 0.586 1.414 0.586h17.165c0.53 0 1.039-0.211 1.414-0.586s0.586-0.884 0.586-1.414v-17.165c0-0.53-0.211-1.039-0.586-1.414s-0.884-0.586-1.414-0.586h-17.165z"></path>
<path fill="#5c686d" style="fill: var(--color3, #5c686d)" d="M16 22.125c-1.212-0.001-2.395-0.362-3.402-1.036s-1.791-1.631-2.254-2.751c-0.463-1.12-0.583-2.351-0.346-3.54s0.821-2.279 1.679-3.135c0.857-0.856 1.949-1.439 3.137-1.675s2.42-0.114 3.539 0.35c1.119 0.464 2.075 1.25 2.748 2.257s1.032 2.192 1.031 3.403c-0.002 1.625-0.649 3.183-1.799 4.332s-2.709 1.794-4.334 1.794zM16 11.2c-0.947 0.001-1.873 0.283-2.661 0.811s-1.401 1.276-1.763 2.152c-0.362 0.876-0.456 1.839-0.271 2.768s0.642 1.783 1.312 2.453c0.67 0.67 1.523 1.126 2.453 1.312s1.892 0.091 2.768-0.271c0.875-0.362 1.624-0.975 2.151-1.762s0.809-1.713 0.811-2.66c0-1.273-0.506-2.494-1.406-3.394s-2.121-1.406-3.394-1.406z"></path>
<path fill="#5c686d" style="fill: var(--color3, #5c686d)" d="M22.933 10.54c0.792 0 1.433-0.642 1.433-1.433s-0.642-1.433-1.433-1.433c-0.792 0-1.433 0.642-1.433 1.433s0.642 1.433 1.433 1.433z"></path>
</symbol>
<symbol id="icon-facebook" viewBox="0 0 32 32">
<path fill="none" stroke="#5c686d" style="stroke: var(--color3, #5c686d)" stroke-linejoin="round" stroke-linecap="round" stroke-miterlimit="4" stroke-width="2.1818" d="M28 10.667v10.667c0 1.768-0.702 3.464-1.953 4.714s-2.946 1.953-4.714 1.953h-10.667c-1.768 0-3.464-0.702-4.714-1.953s-1.953-2.946-1.953-4.714v-10.667c0-1.768 0.702-3.464 1.953-4.714s2.946-1.953 4.714-1.953h10.667c1.768 0 3.464 0.702 4.714 1.953s1.953 2.946 1.953 4.714z"></path>
<path fill="none" stroke="#5c686d" style="stroke: var(--color3, #5c686d)" stroke-linejoin="round" stroke-linecap="round" stroke-miterlimit="4" stroke-width="2.1818" d="M14.667 28v-12c0-2.917 0.667-5.333 5.333-5.333M12 17.333h8"></path>
</symbol>
<symbol id="icon-burger" viewBox="0 0 46 32">
<path fill="none" stroke="#e7ecef" style="stroke: var(--color4, #e7ecef)" stroke-linejoin="round" stroke-linecap="round" stroke-miterlimit="4" stroke-width="2.2857" d="M2.286 2.288h41.143M2.286 16.002h41.143M2.286 29.717h41.143"></path>
</symbol>
<symbol id="icon-telephone" viewBox="0 0 35 32">
<path fill="#1f6c94" style="fill: var(--color1, #1f6c94)" d="M21.333 16h2.667c0-1.768-0.702-3.464-1.953-4.714s-2.946-1.953-4.714-1.953v2.667c1.061 0 2.078 0.421 2.828 1.172s1.172 1.768 1.172 2.828zM26.667 16h2.667c0-6.667-5.373-12-12-12v2.667c5.147 0 9.333 4.173 9.333 9.333zM28 20.667c-1.667 0-3.267-0.267-4.76-0.76-0.467-0.147-0.987-0.040-1.36 0.333l-2.933 2.933c-3.782-1.929-6.858-5.004-8.787-8.787l2.933-2.933c0.373-0.373 0.48-0.893 0.333-1.36-0.506-1.536-0.762-3.143-0.76-4.76 0-0.354-0.14-0.693-0.391-0.943s-0.589-0.391-0.943-0.391h-4.667c-0.354 0-0.693 0.14-0.943 0.391s-0.391 0.589-0.391 0.943c0 6.012 2.388 11.777 6.639 16.028s10.016 6.639 16.028 6.639c0.354 0 0.693-0.141 0.943-0.39s0.39-0.589 0.39-0.943v-4.667c0-0.354-0.141-0.693-0.39-0.943s-0.589-0.391-0.943-0.391z"></path>
</symbol>
<symbol id="icon-close" viewBox="0 0 20 20">
<path d="M10 8.586l-7.071-7.071-1.414 1.414 7.071 7.071-7.071 7.071 1.414 1.414 7.071-7.071 7.071 7.071 1.414-1.414-7.071-7.071 7.071-7.071-1.414-1.414-7.071 7.071z"></path>
</symbol>
<symbol id="icon-location" viewBox="0 0 24 32">
<path fill="#5c686d" style="fill: var(--color1, #5c686d)" d="M12 16c0.825 0 1.531-0.314 2.12-0.941s0.882-1.38 0.88-2.259c0-0.88-0.294-1.634-0.882-2.261s-1.294-0.94-2.118-0.939c-0.825 0-1.531 0.314-2.12 0.941s-0.882 1.38-0.88 2.259c0 0.88 0.294 1.634 0.882 2.261s1.294 0.94 2.118 0.939zM12 27.76c3.050-2.987 5.313-5.7 6.788-8.141s2.212-4.607 2.212-6.499c0-2.907-0.869-5.286-2.607-7.139s-3.869-2.78-6.393-2.781c-2.525 0-4.657 0.927-6.394 2.781s-2.607 4.234-2.606 7.139c0 1.893 0.737 4.060 2.213 6.501s3.737 5.154 6.787 8.139zM12 32c-4.025-3.653-7.031-7.046-9.018-10.179s-2.981-6.033-2.982-8.701c0-4 1.206-7.187 3.619-9.56s5.207-3.56 8.38-3.56c3.175 0 5.969 1.187 8.382 3.56s3.619 5.56 3.618 9.56c0 2.667-0.994 5.567-2.982 8.701s-4.994 6.527-9.018 10.179z"></path>
</symbol>
</defs>
</svg>
